<svg xmlns="http://www.w3.org/2000/svg" version="1.1" xmlns:xlink="http://www.w3.org/1999/xlink" xmlns:svgjs="http://svgjs.dev/svgjs" width="2000" height="858" viewBox="0 0 2000 858"><g transform="matrix(1,0,0,1,-1.2121212121212466,-1.9735762784699773)"><svg viewBox="0 0 396 170" data-background-color="#89939e" preserveAspectRatio="xMidYMid meet" height="858" width="2000" xmlns="http://www.w3.org/2000/svg" xmlns:xlink="http://www.w3.org/1999/xlink"><g id="tight-bounds" transform="matrix(1,0,0,1,0.2400000000000091,0.3910349269695814)"><svg viewBox="0 0 395.52 169.21793014606084" height="169.21793014606084" width="395.52"><g><svg viewBox="0 0 674.3459211999273 288.5098629345933" height="169.21793014606084" width="395.52"><g transform="matrix(1,0,0,1,276.8483211999274,51.918471817030934)"><svg viewBox="0 0 397.4975999999999 184.67291930053142" height="184.67291930053142" width="397.4975999999999"><g id="textblocktransform"><svg viewBox="0 0 397.4975999999999 184.67291930053142" height="184.67291930053142" width="397.4975999999999" id="textblock"><g><rect width="397.4975999999999" height="11.916415280772293" x="0" y="146.17648337615955" fill="#ffffff" opacity="1" stroke-width="0" stroke="transparent" fill-opacity="1" class="rect-yte-0" data-fill-palette-color="primary" rx="1%" id="yte-0" data-palette-color="#ffffff"></rect></g><g transform="matrix(1,0,0,1,0.9887999999999693,0)"><svg viewBox="0 0 395.52 132.13882139619218" height="132.13882139619218" width="395.52"><g transform="matrix(1,0,0,1,0,0)"><svg width="395.52" viewBox="4.49 -35.99 107.71000000000001 35.99" height="132.13882139619218" data-palette-color="#ffffff"><path d="M4.49 0L4.49-35.99 10.45-35.99 20.12-13.77 20.12-4.74 18.55-4.74 10.45-24.76 10.45 0 4.49 0ZM22.12-13.67L31.79-35.99 37.74-35.99 37.74 0 31.79 0 31.79-24.76 23.73-4.74 22.12-4.74 22.12-13.67ZM46.73 0L46.73-35.99 52.68-35.99 62.35-13.77 62.35-4.74 60.79-4.74 52.68-24.76 52.68 0 46.73 0ZM64.35-13.67L74.02-35.99 79.98-35.99 79.98 0 74.02 0 74.02-24.76 65.96-4.74 64.35-4.74 64.35-13.67ZM88.28-35.99L112.2-35.99 112.2-31.25 95.06-5.52 94.09-4.74 112.2-4.74 112.2 0 88.28 0 88.28-4.74 105.41-30.47 106.44-31.25 88.28-31.25 88.28-35.99Z" opacity="1" transform="matrix(1,0,0,1,0,0)" fill="#ffffff" class="wordmark-text-0" data-fill-palette-color="primary" id="text-0"></path></svg></g></svg></g><g transform="matrix(1,0,0,1,0,172.13056063689922)"><svg viewBox="0 0 232.209792 12.542358663632227" height="12.542358663632227" width="232.209792"><g transform="matrix(1,0,0,1,0,0)"><svg width="232.209792" viewBox="2.49 -39.84 965.38 52.14" height="12.542358663632227" data-palette-color="#ffffff"><path d="M2.49-35.99L29.88-35.99 29.88-31.98 19.14-31.98 19.14 0 13.23 0 13.23-31.98 2.49-31.98 2.49-35.99ZM52.05-27.73L52.05-21.58Q50.68-21.97 48.73-22.02L48.73-22.02Q46.97-22.02 45.24-21.61 43.5-21.19 42.48-20.21L42.48-20.21 42.48-9.77 42.48-9.67 42.48 0 36.57 0 36.57-27.54 41.84-27.54 42.48-24.71Q43.21-25.44 44.02-26.03 44.82-26.61 45.9-26.98 46.97-27.34 48.44-27.54 49.9-27.73 52.05-27.73L52.05-27.73ZM78.32-14.89L78.32-8.54 78.32-8.15Q78.32-7.76 78.36-7.01 78.41-6.25 78.56-5.47 78.71-4.69 79.02-4.05 79.34-3.42 79.88-3.22L79.88-3.22 78.32 0.05Q77.68 0.05 76.97-0.24 76.26-0.54 75.61-1.07 74.95-1.61 74.48-2.27 74.02-2.93 73.77-3.71L73.77-3.71Q73.43-2.88 72.58-2.17 71.72-1.46 70.65-0.9 69.58-0.34 68.33-0.05 67.08 0.24 66.01 0.24L66.01 0.24Q64.35 0.24 62.81-0.2 61.27-0.63 60.1-1.61 58.93-2.59 58.27-4.2 57.61-5.81 57.61-8.15L57.61-8.15Q57.61-10.4 58.56-12.04 59.52-13.67 61.01-14.72 62.5-15.77 64.4-16.28 66.3-16.8 68.26-16.8L68.26-16.8 72.41-16.8Q72.41-19.19 72.16-20.61 71.92-22.02 71.33-22.68 70.75-23.34 69.89-23.51 69.04-23.68 67.87-23.68L67.87-23.68Q66.79-23.68 65.84-23.41 64.89-23.14 64.08-22.78 63.28-22.41 62.67-21.97 62.06-21.53 61.76-21.29L61.76-21.29 59.57-24.66Q60.05-25.2 61.03-25.76 62.01-26.32 63.28-26.76 64.55-27.2 66.04-27.47 67.52-27.73 69.14-27.73L69.14-27.73Q70.6-27.73 71.99-27.44 73.38-27.15 74.53-26.46 75.68-25.78 76.53-24.63 77.39-23.49 77.73-21.78L77.73-21.78Q78.07-20.07 78.19-18.33 78.32-16.6 78.32-14.89L78.32-14.89ZM72.46-6.59L72.46-13.33 69.33-13.33Q68.35-13.33 67.28-13.13 66.21-12.94 65.28-12.4 64.35-11.87 63.74-10.86 63.13-9.86 63.13-8.3L63.13-8.3Q63.13-5.86 64.23-4.79 65.33-3.71 67.43-3.71L67.43-3.71Q68.89-3.71 70.23-4.49 71.58-5.27 72.46-6.59L72.46-6.59ZM110.44-0.98L110.44 0 104.48 0 104.48-14.99Q104.48-16.65 104.34-18.16 104.19-19.68 103.65-20.85 103.12-22.02 102.19-22.68 101.26-23.34 99.6-23.34L99.6-23.34Q99.06-23.34 98.21-23.19 97.36-23.05 96.45-22.75 95.55-22.46 94.74-22.02 93.94-21.58 93.55-21L93.55-21 93.55-20.7 93.55-20.61 93.55-9.77 93.55-9.67 93.55 0 87.64 0 87.64-27.54 92.91-27.54 93.55-24.76Q94.13-25.29 95.04-25.85 95.94-26.42 97.01-26.86 98.09-27.29 99.21-27.56 100.33-27.83 101.41-27.83L101.41-27.83Q103.61-27.83 105.12-26.9 106.63-25.98 108.15-24.51L108.15-24.51Q108.98-23.68 109.44-22.58 109.9-21.48 110.12-20.29 110.34-19.09 110.39-17.87 110.44-16.65 110.44-15.48L110.44-15.48 110.44-0.98ZM118.06-2.2L118.06-2.2 120.55-6.15Q121.52-5.47 122.87-4.88 124.21-4.3 126.26-4.3L126.26-4.3Q128.95-4.3 130.46-5.13 131.97-5.96 131.97-7.57L131.97-7.57Q131.97-8.74 131.09-9.45 130.21-10.16 128.87-10.67 127.53-11.18 125.99-11.65 124.45-12.11 123.13-12.79L123.13-12.79Q120.55-14.16 119.25-15.67 117.96-17.19 117.96-19.68L117.96-19.68Q117.96-21.73 118.81-23.29 119.67-24.85 121.03-25.9 122.4-26.95 124.16-27.49 125.92-28.03 127.72-28.03L127.72-28.03Q130.17-28.03 132.22-27.51 134.27-27 136.17-25.78L136.17-25.78 134.27-21.73Q132.8-22.56 131.09-22.88 129.38-23.19 127.72-23.19L127.72-23.19Q125.92-23.19 124.87-22.39 123.82-21.58 123.82-19.87L123.82-19.87Q123.82-18.55 124.77-17.8 125.72-17.04 127.24-16.46 128.75-15.87 130.46-15.28 132.17-14.7 133.66-13.79 135.15-12.89 136.12-11.52 137.1-10.16 137.1-8.01L137.1-8.01Q137.1-5.91 136.27-4.35 135.44-2.78 134.02-1.76 132.61-0.73 130.75-0.24 128.9 0.24 126.8 0.24L126.8 0.24Q125.53 0.24 124.45 0.17 123.38 0.1 122.35-0.15 121.33-0.39 120.3-0.88 119.28-1.37 118.06-2.2ZM156.53-33.84L156.53-33.84Q155.55-33.84 154.89-33.35 154.24-32.86 153.8-31.98 153.36-31.1 153.16-29.96 152.97-28.81 152.92-27.54L152.92-27.54 157.17-27.54 157.17-23.54 152.82-23.54 152.82-21.19 152.82 0 146.86 0 146.86-21.19 146.86-23.54 143.25-23.54 143.25-27.54 146.96-27.54Q147.11-29.64 147.55-31.57 147.99-33.5 148.94-34.94 149.89-36.38 151.53-37.26 153.16-38.13 155.65-38.13L155.65-38.13Q156.38-38.13 157.21-38.01 158.04-37.89 158.85-37.72 159.66-37.55 160.34-37.3 161.02-37.06 161.41-36.77L161.41-36.77 159.51-33.25Q158.83-33.64 157.87-33.74 156.92-33.84 156.53-33.84ZM177.52-27.69L177.52-27.69Q180.36-27.69 182.65-26.59 184.95-25.49 186.56-23.58 188.17-21.68 189.05-19.14 189.93-16.6 189.93-13.67L189.93-13.67Q189.93-10.74 189-8.18 188.07-5.62 186.39-3.74 184.7-1.86 182.38-0.81 180.06 0.24 177.23 0.24L177.23 0.24Q174.35 0.24 171.98-0.83 169.61-1.9 167.98-3.81 166.34-5.71 165.46-8.25 164.58-10.79 164.58-13.77 164.58-16.75 165.54-19.34 166.49-21.92 168.17-23.75 169.86-25.59 172.25-26.64 174.64-27.69 177.52-27.69ZM177.13-4.39L177.13-4.39Q178.6-4.39 179.79-5.1 180.99-5.81 181.85-7.06 182.7-8.3 183.21-10.01 183.73-11.72 183.73-13.67L183.73-13.67Q183.73-15.63 183.26-17.33 182.8-19.04 181.99-20.34 181.19-21.63 180.01-22.41 178.84-23.19 177.38-23.19L177.38-23.19Q175.91-23.19 174.69-22.46 173.47-21.73 172.62-20.48 171.76-19.24 171.3-17.55 170.83-15.87 170.83-13.92L170.83-13.92Q170.83-11.96 171.25-10.23 171.66-8.5 172.49-7.23 173.32-5.96 174.47-5.18 175.62-4.39 177.13-4.39ZM213.07-27.73L213.07-21.58Q211.7-21.97 209.75-22.02L209.75-22.02Q207.99-22.02 206.26-21.61 204.52-21.19 203.5-20.21L203.5-20.21 203.5-9.77 203.5-9.67 203.5 0 197.59 0 197.59-27.54 202.86-27.54 203.5-24.71Q204.23-25.44 205.04-26.03 205.84-26.61 206.92-26.98 207.99-27.34 209.46-27.54 210.92-27.73 213.07-27.73L213.07-27.73ZM255.74-15.48L255.74-0.93 255.74 0 249.88 0 249.88-14.99Q249.88-16.65 249.86-18.14 249.83-19.63 249.54-20.8 249.25-21.97 248.59-22.63 247.93-23.29 246.56-23.29L246.56-23.29Q246.32-23.29 245.71-23.22 245.1-23.14 244.27-22.92 243.44-22.71 242.44-22.22 241.44-21.73 240.46-20.95L240.46-20.95Q240.46-19.04 240.48-17.92 240.51-16.8 240.51-15.48L240.51-15.48 240.51 0 234.6 0 234.6-14.99Q234.6-16.65 234.6-18.14 234.6-19.63 234.31-20.8 234.01-21.97 233.33-22.63 232.65-23.29 231.33-23.29L231.33-23.29Q230.89-23.29 230.11-23.17 229.33-23.05 228.47-22.75 227.62-22.46 226.76-22.02 225.91-21.58 225.32-21L225.32-21 225.32 0 219.36 0 219.36-27.54 224.69-27.54 225.32-24.71Q226.54-25.83 228.47-26.78 230.4-27.73 232.5-27.73L232.5-27.73Q234.84-27.73 236.41-26.71 237.97-25.68 239.53-23.68L239.53-23.68Q240.36-24.61 241.39-25.39 242.41-26.17 243.51-26.71 244.61-27.25 245.68-27.54 246.76-27.83 247.73-27.83L247.73-27.83Q249.39-27.83 250.86-27.17 252.32-26.51 253.42-25.29 254.52-24.07 255.13-22.39 255.74-20.7 255.74-18.75L255.74-18.75 255.74-15.48ZM270.05-27.54L270.05 0 264.09 0 264.09-27.54 270.05-27.54ZM270.58-36.33L270.58-36.33Q270.58-34.86 269.56-33.86 268.53-32.86 267.07-32.86L267.07-32.86Q265.6-32.86 264.6-33.89 263.6-34.91 263.6-36.33L263.6-36.33Q263.6-37.79 264.63-38.82 265.65-39.84 267.07-39.84L267.07-39.84Q268.53-39.84 269.56-38.82 270.58-37.79 270.58-36.33ZM301.15-0.98L301.15 0 295.19 0 295.19-14.99Q295.19-16.65 295.04-18.16 294.9-19.68 294.36-20.85 293.82-22.02 292.89-22.68 291.97-23.34 290.31-23.34L290.31-23.34Q289.77-23.34 288.92-23.19 288.06-23.05 287.16-22.75 286.25-22.46 285.45-22.02 284.64-21.58 284.25-21L284.25-21 284.25-20.7 284.25-20.61 284.25-9.77 284.25-9.67 284.25 0 278.34 0 278.34-27.54 283.62-27.54 284.25-24.76Q284.84-25.29 285.74-25.85 286.64-26.42 287.72-26.86 288.79-27.29 289.92-27.56 291.04-27.83 292.11-27.83L292.11-27.83Q294.31-27.83 295.82-26.9 297.34-25.98 298.85-24.51L298.85-24.51Q299.68-23.68 300.15-22.58 300.61-21.48 300.83-20.29 301.05-19.09 301.1-17.87 301.15-16.65 301.15-15.48L301.15-15.48 301.15-0.98ZM311.5 6.93L314.91 3.56Q315.4 4.39 316.16 4.93 316.92 5.47 317.72 5.76 318.53 6.05 319.33 6.18 320.14 6.3 320.77 6.3L320.77 6.3Q323.8 6.3 325.51 4.54 327.22 2.78 327.22-1.46L327.22-1.46 327.22-2.73 327.22-2.83 327.27-3.08Q327.27-3.13 327.24-3.17 327.22-3.22 327.22-3.27L327.22-3.27Q327.07-2.64 326.36-2 325.66-1.37 324.58-0.85 323.51-0.34 322.14-0.05 320.77 0.24 319.31 0.24L319.31 0.24Q316.57 0.24 314.52-0.95 312.47-2.15 311.11-4.15 309.74-6.15 309.1-8.74 308.47-11.33 308.47-14.16L308.47-14.16Q308.47-17.97 309.52-20.56 310.57-23.14 312.2-24.78 313.84-26.42 315.87-27.1 317.89-27.78 319.85-27.78L319.85-27.78Q322.24-27.78 324.22-26.95 326.19-26.12 327.22-24.76L327.22-24.76 327.85-27.54 333.13-27.54 333.08 0Q332.88 2.98 331.88 5.08 330.88 7.18 329.32 8.54 327.76 9.91 325.7 10.5 323.65 11.08 321.31 11.08L321.31 11.08Q318.58 11.08 315.91 10.13 313.25 9.18 311.5 6.93L311.5 6.93ZM327.61-13.96L327.61-13.96Q327.61-15.92 327.12-17.58 326.63-19.24 325.8-20.51 324.97-21.78 323.75-22.51 322.53-23.24 321.12-23.24L321.12-23.24Q319.65-23.24 318.45-22.49 317.26-21.73 316.43-20.46 315.6-19.19 315.16-17.48 314.72-15.77 314.72-13.87L314.72-13.87Q314.72-11.91 315.18-10.18 315.65-8.45 316.5-7.18 317.36-5.91 318.55-5.15 319.75-4.39 321.21-4.39L321.21-4.39Q322.73-4.39 323.9-5.15 325.07-5.91 325.88-7.2 326.68-8.5 327.15-10.25 327.61-12.01 327.61-13.96ZM362.37-35.99L362.37 0 356.41 0 356.41-35.99 362.37-35.99ZM372.91-2.78L372.91-2.78Q371.06-4.88 370.18-7.96 369.3-11.04 369.3-14.16L369.3-14.16Q369.3-17.97 370.35-20.56 371.4-23.14 373.06-24.76 374.72-26.37 376.75-27.08 378.77-27.78 380.73-27.78L380.73-27.78Q383.12-27.78 385.1-26.95 387.07-26.12 388.05-24.76L388.05-24.76 388.05-37.94 394.01-37.94 394.01 0 388.39 0Q388.3-0.83 388.22-1.68 388.15-2.54 388.05-3.27L388.05-3.27Q387.9-2.64 387.2-2 386.49-1.37 385.39-0.85 384.29-0.34 382.92-0.05 381.56 0.24 380.09 0.24L380.09 0.24Q378.14 0.24 376.26-0.44 374.38-1.12 372.91-2.78ZM375.55-13.72L375.55-13.72Q375.55-11.77 376.04-10.08 376.53-8.4 377.36-7.13 378.19-5.86 379.38-5.13 380.58-4.39 382-4.39L382-4.39Q383.51-4.39 384.71-5.15 385.9-5.91 386.73-7.18 387.56-8.45 388-10.16 388.44-11.87 388.44-13.82L388.44-13.82Q388.44-15.77 387.98-17.48 387.51-19.19 386.66-20.46 385.8-21.73 384.61-22.49 383.41-23.24 381.9-23.24L381.9-23.24Q380.38-23.24 379.21-22.49 378.04-21.73 377.24-20.41 376.43-19.09 375.99-17.38 375.55-15.67 375.55-13.72ZM413.88-27.83L413.88-27.83Q417.2-27.83 419.74-26.49 422.28-25.15 423.91-22.92 425.55-20.7 426.26-17.8 426.96-14.89 426.53-11.77L426.53-11.77 407.38-11.77Q407.38-10.21 407.97-8.89 408.56-7.57 409.56-6.62 410.56-5.66 411.95-5.13 413.34-4.59 414.95-4.59L414.95-4.59Q415.49-4.59 416.3-4.71 417.1-4.83 418-5.15 418.91-5.47 419.81-5.96 420.71-6.45 421.4-7.13L421.4-7.13 423.55-3.86Q421.94-1.86 419.79-0.83 417.64 0.2 414.32 0.2L414.32 0.2Q411.63 0.2 409.29-0.9 406.94-2 405.28-3.91 403.62-5.81 402.65-8.35 401.67-10.89 401.67-13.82L401.67-13.82Q401.67-16.7 402.65-19.26 403.62-21.83 405.26-23.73 406.9-25.63 409.14-26.73 411.39-27.83 413.88-27.83ZM407.58-16.06L421.06-16.06Q421.06-17.38 420.57-18.65 420.08-19.92 419.23-20.95 418.37-21.97 417.15-22.58 415.93-23.19 414.51-23.24L414.51-23.24Q413-23.24 411.73-22.66 410.46-22.07 409.53-21.09 408.61-20.12 408.09-18.77 407.58-17.43 407.58-16.06L407.58-16.06ZM454.75-14.89L454.75-8.54 454.75-8.15Q454.75-7.76 454.79-7.01 454.84-6.25 454.99-5.47 455.14-4.69 455.45-4.05 455.77-3.42 456.31-3.22L456.31-3.22 454.75 0.05Q454.11 0.05 453.4-0.24 452.69-0.54 452.04-1.07 451.38-1.61 450.91-2.27 450.45-2.93 450.2-3.71L450.2-3.71Q449.86-2.88 449.01-2.17 448.15-1.46 447.08-0.9 446-0.34 444.76-0.05 443.51 0.24 442.44 0.24L442.44 0.24Q440.78 0.24 439.24-0.2 437.7-0.63 436.53-1.61 435.36-2.59 434.7-4.2 434.04-5.81 434.04-8.15L434.04-8.15Q434.04-10.4 434.99-12.04 435.95-13.67 437.44-14.72 438.92-15.77 440.83-16.28 442.73-16.8 444.69-16.8L444.69-16.8 448.84-16.8Q448.84-19.19 448.59-20.61 448.35-22.02 447.76-22.68 447.18-23.34 446.32-23.51 445.47-23.68 444.3-23.68L444.3-23.68Q443.22-23.68 442.27-23.41 441.32-23.14 440.51-22.78 439.71-22.41 439.1-21.97 438.49-21.53 438.19-21.29L438.19-21.29 436-24.66Q436.48-25.2 437.46-25.76 438.44-26.32 439.71-26.76 440.98-27.2 442.46-27.47 443.95-27.73 445.57-27.73L445.57-27.73Q447.03-27.73 448.42-27.44 449.81-27.15 450.96-26.46 452.11-25.78 452.96-24.63 453.82-23.49 454.16-21.78L454.16-21.78Q454.5-20.07 454.62-18.33 454.75-16.6 454.75-14.89L454.75-14.89ZM448.89-6.59L448.89-13.33 445.76-13.33Q444.78-13.33 443.71-13.13 442.64-12.94 441.71-12.4 440.78-11.87 440.17-10.86 439.56-9.86 439.56-8.3L439.56-8.3Q439.56-5.86 440.66-4.79 441.76-3.71 443.86-3.71L443.86-3.71Q445.32-3.71 446.66-4.49 448.01-5.27 448.89-6.59L448.89-6.59ZM463.53-2.2L463.53-2.2 466.02-6.15Q467-5.47 468.34-4.88 469.68-4.3 471.73-4.3L471.73-4.3Q474.42-4.3 475.93-5.13 477.45-5.96 477.45-7.57L477.45-7.57Q477.45-8.74 476.57-9.45 475.69-10.16 474.35-10.67 473-11.18 471.47-11.65 469.93-12.11 468.61-12.79L468.61-12.79Q466.02-14.16 464.73-15.67 463.43-17.19 463.43-19.68L463.43-19.68Q463.43-21.73 464.29-23.29 465.14-24.85 466.51-25.9 467.88-26.95 469.64-27.49 471.39-28.03 473.2-28.03L473.2-28.03Q475.64-28.03 477.69-27.51 479.74-27 481.65-25.78L481.65-25.78 479.74-21.73Q478.28-22.56 476.57-22.88 474.86-23.19 473.2-23.19L473.2-23.19Q471.39-23.19 470.34-22.39 469.29-21.58 469.29-19.87L469.29-19.87Q469.29-18.55 470.25-17.8 471.2-17.04 472.71-16.46 474.23-15.87 475.93-15.28 477.64-14.7 479.13-13.79 480.62-12.89 481.6-11.52 482.57-10.16 482.57-8.01L482.57-8.01Q482.57-5.91 481.74-4.35 480.91-2.78 479.5-1.76 478.08-0.73 476.23-0.24 474.37 0.24 472.27 0.24L472.27 0.24Q471 0.24 469.93 0.17 468.85 0.1 467.83-0.15 466.8-0.39 465.78-0.88 464.75-1.37 463.53-2.2ZM509.52-27.54L509.52 0 503.57 0 503.57-27.54 509.52-27.54ZM510.06-36.33L510.06-36.33Q510.06-34.86 509.03-33.86 508.01-32.86 506.54-32.86L506.54-32.86Q505.08-32.86 504.08-33.89 503.08-34.91 503.08-36.33L503.08-36.33Q503.08-37.79 504.1-38.82 505.13-39.84 506.54-39.84L506.54-39.84Q508.01-39.84 509.03-38.82 510.06-37.79 510.06-36.33ZM540.62-0.98L540.62 0 534.67 0 534.67-14.99Q534.67-16.65 534.52-18.16 534.37-19.68 533.84-20.85 533.3-22.02 532.37-22.68 531.44-23.34 529.78-23.34L529.78-23.34Q529.25-23.34 528.39-23.19 527.54-23.05 526.63-22.75 525.73-22.46 524.93-22.02 524.12-21.58 523.73-21L523.73-21 523.73-20.7 523.73-20.61 523.73-9.77 523.73-9.67 523.73 0 517.82 0 517.82-27.54 523.09-27.54 523.73-24.76Q524.32-25.29 525.22-25.85 526.12-26.42 527.2-26.86 528.27-27.29 529.39-27.56 530.52-27.83 531.59-27.83L531.59-27.83Q533.79-27.83 535.3-26.9 536.82-25.98 538.33-24.51L538.33-24.51Q539.16-23.68 539.62-22.58 540.09-21.48 540.31-20.29 540.53-19.09 540.58-17.87 540.62-16.65 540.62-15.48L540.62-15.48 540.62-0.98ZM556.64-23.54L556.64-8.35Q556.64-6.69 557.08-5.76 557.52-4.83 558.32-4.35 559.13-3.86 560.13-3.74 561.13-3.61 562.25-3.61L562.25-3.61 562.25 0Q561.62 0.1 560.98 0.15L560.98 0.15Q560.45 0.2 559.69 0.22 558.93 0.24 558.2 0.24L558.2 0.24Q557.47 0.24 556.71 0.2 555.95 0.15 555.42 0.05L555.42 0.05Q553.76-0.24 552.83-1.39 551.9-2.54 551.44-3.93 550.97-5.32 550.85-6.64 550.73-7.96 550.73-8.69L550.73-8.69 550.73-23.54 547.12-23.54 547.12-27.54 550.73-27.54 550.73-35.35 556.64-35.35 556.64-27.54 561.03-27.54 561.03-23.54 556.64-23.54ZM581.44-27.69L581.44-27.69Q584.27-27.69 586.57-26.59 588.86-25.49 590.47-23.58 592.08-21.68 592.96-19.14 593.84-16.6 593.84-13.67L593.84-13.67Q593.84-10.74 592.91-8.18 591.99-5.62 590.3-3.74 588.62-1.86 586.3-0.81 583.98 0.24 581.15 0.24L581.15 0.24Q578.27 0.24 575.9-0.83 573.53-1.9 571.89-3.81 570.26-5.71 569.38-8.25 568.5-10.79 568.5-13.77 568.5-16.75 569.45-19.34 570.4-21.92 572.09-23.75 573.77-25.59 576.17-26.64 578.56-27.69 581.44-27.69ZM581.05-4.39L581.05-4.39Q582.51-4.39 583.71-5.1 584.91-5.81 585.76-7.06 586.61-8.3 587.13-10.01 587.64-11.72 587.64-13.67L587.64-13.67Q587.64-15.63 587.18-17.33 586.71-19.04 585.91-20.34 585.1-21.63 583.93-22.41 582.76-23.19 581.29-23.19L581.29-23.19Q579.83-23.19 578.61-22.46 577.39-21.73 576.53-20.48 575.68-19.24 575.21-17.55 574.75-15.87 574.75-13.92L574.75-13.92Q574.75-11.96 575.16-10.23 575.58-8.5 576.41-7.23 577.24-5.96 578.39-5.18 579.53-4.39 581.05-4.39ZM644.42-18.99L644.42-18.99Q644.42-14.55 643.47-11.4 642.52-8.25 641.05-6.13 639.59-4 637.76-2.78 635.93-1.56 634.22-0.95 632.51-0.34 631.09-0.17 629.68 0 628.99 0L628.99 0 615.37 0 615.37-35.99 626.21-35.99Q630.75-35.99 634.19-34.55 637.64-33.11 639.91-30.71 642.18-28.32 643.3-25.27 644.42-22.22 644.42-18.99ZM621.23-4.3L627.04-4.3Q633-4.3 635.63-8.11 638.27-11.91 638.27-19.14L638.27-19.14Q638.27-21.39 637.73-23.58 637.2-25.78 635.66-27.56 634.12-29.35 631.48-30.44 628.85-31.54 624.65-31.54L624.65-31.54 621.23-31.54 621.23-4.3ZM658.38-27.54L658.38 0 652.43 0 652.43-27.54 658.38-27.54ZM658.92-36.33L658.92-36.33Q658.92-34.86 657.9-33.86 656.87-32.86 655.41-32.86L655.41-32.86Q653.94-32.86 652.94-33.89 651.94-34.91 651.94-36.33L651.94-36.33Q651.94-37.79 652.96-38.82 653.99-39.84 655.41-39.84L655.41-39.84Q656.87-39.84 657.9-38.82 658.92-37.79 658.92-36.33ZM668.88 6.93L672.3 3.56Q672.79 4.39 673.54 4.93 674.3 5.47 675.11 5.76 675.91 6.05 676.72 6.18 677.52 6.3 678.16 6.3L678.16 6.3Q681.18 6.3 682.89 4.54 684.6 2.78 684.6-1.46L684.6-1.46 684.6-2.73 684.6-2.83 684.65-3.08Q684.65-3.13 684.63-3.17 684.6-3.22 684.6-3.27L684.6-3.27Q684.46-2.64 683.75-2 683.04-1.37 681.97-0.85 680.89-0.34 679.52-0.05 678.16 0.24 676.69 0.24L676.69 0.24Q673.96 0.24 671.91-0.95 669.86-2.15 668.49-4.15 667.12-6.15 666.49-8.74 665.85-11.33 665.85-14.16L665.85-14.16Q665.85-17.97 666.9-20.56 667.95-23.14 669.59-24.78 671.22-26.42 673.25-27.1 675.28-27.78 677.23-27.78L677.23-27.78Q679.62-27.78 681.6-26.95 683.58-26.12 684.6-24.76L684.6-24.76 685.24-27.54 690.51-27.54 690.46 0Q690.27 2.98 689.27 5.08 688.27 7.18 686.7 8.54 685.14 9.91 683.09 10.5 681.04 11.08 678.69 11.08L678.69 11.08Q675.96 11.08 673.3 10.13 670.64 9.18 668.88 6.93L668.88 6.93ZM684.99-13.96L684.99-13.96Q684.99-15.92 684.51-17.58 684.02-19.24 683.19-20.51 682.36-21.78 681.14-22.51 679.92-23.24 678.5-23.24L678.5-23.24Q677.03-23.24 675.84-22.49 674.64-21.73 673.81-20.46 672.98-19.19 672.54-17.48 672.1-15.77 672.1-13.87L672.1-13.87Q672.1-11.91 672.57-10.18 673.03-8.45 673.89-7.18 674.74-5.91 675.94-5.15 677.13-4.39 678.6-4.39L678.6-4.39Q680.11-4.39 681.28-5.15 682.45-5.91 683.26-7.2 684.07-8.5 684.53-10.25 684.99-12.01 684.99-13.96ZM705.94-27.54L705.94 0 699.98 0 699.98-27.54 705.94-27.54ZM706.48-36.33L706.48-36.33Q706.48-34.86 705.45-33.86 704.42-32.86 702.96-32.86L702.96-32.86Q701.49-32.86 700.49-33.89 699.49-34.91 699.49-36.33L699.49-36.33Q699.49-37.79 700.52-38.82 701.54-39.84 702.96-39.84L702.96-39.84Q704.42-39.84 705.45-38.82 706.48-37.79 706.48-36.33ZM722.1-23.54L722.1-8.35Q722.1-6.69 722.54-5.76 722.98-4.83 723.78-4.35 724.59-3.86 725.59-3.74 726.59-3.61 727.71-3.61L727.71-3.61 727.71 0Q727.08 0.1 726.44 0.15L726.44 0.15Q725.91 0.2 725.15 0.22 724.39 0.24 723.66 0.24L723.66 0.24Q722.93 0.24 722.17 0.2 721.41 0.15 720.88 0.05L720.88 0.05Q719.22-0.24 718.29-1.39 717.36-2.54 716.9-3.93 716.43-5.32 716.31-6.64 716.19-7.96 716.19-8.69L716.19-8.69 716.19-23.54 712.58-23.54 712.58-27.54 716.19-27.54 716.19-35.35 722.1-35.35 722.1-27.54 726.49-27.54 726.49-23.54 722.1-23.54ZM754.61-14.89L754.61-8.54 754.61-8.15Q754.61-7.76 754.66-7.01 754.71-6.25 754.86-5.47 755.01-4.69 755.32-4.05 755.64-3.42 756.18-3.22L756.18-3.22 754.61 0.05Q753.98 0.05 753.27-0.24 752.56-0.54 751.91-1.07 751.25-1.61 750.78-2.27 750.32-2.93 750.07-3.71L750.07-3.71Q749.73-2.88 748.88-2.17 748.02-1.46 746.95-0.9 745.87-0.34 744.63-0.05 743.38 0.24 742.31 0.24L742.31 0.24Q740.65 0.24 739.11-0.2 737.57-0.63 736.4-1.61 735.23-2.59 734.57-4.2 733.91-5.81 733.91-8.15L733.91-8.15Q733.91-10.4 734.86-12.04 735.82-13.67 737.31-14.72 738.79-15.77 740.7-16.28 742.6-16.8 744.56-16.8L744.56-16.8 748.71-16.8Q748.71-19.19 748.46-20.61 748.22-22.02 747.63-22.68 747.05-23.34 746.19-23.51 745.34-23.68 744.17-23.68L744.17-23.68Q743.09-23.68 742.14-23.41 741.19-23.14 740.38-22.78 739.58-22.41 738.97-21.97 738.36-21.53 738.06-21.29L738.06-21.29 735.86-24.66Q736.35-25.2 737.33-25.76 738.31-26.32 739.58-26.76 740.85-27.2 742.33-27.47 743.82-27.73 745.44-27.73L745.44-27.73Q746.9-27.73 748.29-27.44 749.68-27.15 750.83-26.46 751.98-25.78 752.83-24.63 753.69-23.49 754.03-21.78L754.03-21.78Q754.37-20.07 754.49-18.33 754.61-16.6 754.61-14.89L754.61-14.89ZM748.76-6.59L748.76-13.33 745.63-13.33Q744.65-13.33 743.58-13.13 742.51-12.94 741.58-12.4 740.65-11.87 740.04-10.86 739.43-9.86 739.43-8.3L739.43-8.3Q739.43-5.86 740.53-4.79 741.63-3.71 743.73-3.71L743.73-3.71Q745.19-3.71 746.53-4.49 747.88-5.27 748.76-6.59L748.76-6.59ZM769.8-37.94L769.8-8.4Q769.8-6.74 770.24-5.79 770.68-4.83 771.46-4.37 772.24-3.91 773.24-3.76 774.24-3.61 775.41-3.61L775.41-3.61 775.41 0Q774.78 0.1 774.09 0.15L774.09 0.15Q773.56 0.2 772.83 0.22 772.09 0.24 771.36 0.24L771.36 0.24Q770.63 0.24 769.9 0.2 769.16 0.15 768.58 0.05L768.58 0.05Q766.92-0.29 765.99-1.42 765.06-2.54 764.57-3.93 764.09-5.32 763.96-6.64 763.84-7.96 763.84-8.69L763.84-8.69 763.84-9.28 763.84-37.94 769.8-37.94ZM819.65 0L813.45 0 806.66-13.04Q806.51-13.04 806.27-13.01 806.02-12.99 805.51-12.99 805-12.99 803.95-12.99 802.9-12.99 801.09-12.99L801.09-12.99 801.09 0 795.23 0 795.23-35.99 805.58-35.99Q807.88-35.99 810.13-35.25 812.37-34.52 814.15-33.06 815.94-31.59 817.03-29.52 818.13-27.44 818.13-24.85L818.13-24.85Q818.13-20.95 816.33-18.21 814.52-15.48 811.44-14.16L811.44-14.16 819.65 0ZM801.09-31.54L801.09-17.29 806.41-17.29Q807.49-17.29 808.56-17.65 809.64-18.02 810.52-18.85 811.39-19.68 811.93-21.17 812.47-22.66 812.47-24.85L812.47-24.85Q812.47-25.73 812.22-26.88 811.98-28.03 811.22-29.08 810.47-30.13 809.1-30.83 807.73-31.54 805.49-31.54L805.49-31.54 801.09-31.54ZM838.78-27.83L838.78-27.83Q842.1-27.83 844.64-26.49 847.18-25.15 848.82-22.92 850.45-20.7 851.16-17.8 851.87-14.89 851.43-11.77L851.43-11.77 832.29-11.77Q832.29-10.21 832.88-8.89 833.46-7.57 834.46-6.62 835.46-5.66 836.86-5.13 838.25-4.59 839.86-4.59L839.86-4.59Q840.4-4.59 841.2-4.71 842.01-4.83 842.91-5.15 843.81-5.47 844.72-5.96 845.62-6.45 846.3-7.13L846.3-7.13 848.45-3.86Q846.84-1.86 844.69-0.83 842.54 0.2 839.22 0.2L839.22 0.2Q836.54 0.2 834.19-0.9 831.85-2 830.19-3.91 828.53-5.81 827.55-8.35 826.58-10.89 826.58-13.82L826.58-13.82Q826.58-16.7 827.55-19.26 828.53-21.83 830.17-23.73 831.8-25.63 834.05-26.73 836.29-27.83 838.78-27.83ZM832.49-16.06L845.96-16.06Q845.96-17.38 845.47-18.65 844.99-19.92 844.13-20.95 843.28-21.97 842.06-22.58 840.84-23.19 839.42-23.24L839.42-23.24Q837.91-23.24 836.64-22.66 835.37-22.07 834.44-21.09 833.51-20.12 833-18.77 832.49-17.43 832.49-16.06L832.49-16.06ZM879.65-14.89L879.65-8.54 879.65-8.15Q879.65-7.76 879.7-7.01 879.75-6.25 879.9-5.47 880.04-4.69 880.36-4.05 880.68-3.42 881.21-3.22L881.21-3.22 879.65 0.05Q879.02 0.05 878.31-0.24 877.6-0.54 876.94-1.07 876.28-1.61 875.82-2.27 875.35-2.93 875.11-3.71L875.11-3.71Q874.77-2.88 873.91-2.17 873.06-1.46 871.99-0.9 870.91-0.34 869.67-0.05 868.42 0.24 867.35 0.24L867.35 0.24Q865.69 0.24 864.15-0.2 862.61-0.63 861.44-1.61 860.27-2.59 859.61-4.2 858.95-5.81 858.95-8.15L858.95-8.15Q858.95-10.4 859.9-12.04 860.85-13.67 862.34-14.72 863.83-15.77 865.74-16.28 867.64-16.8 869.59-16.8L869.59-16.8 873.74-16.8Q873.74-19.19 873.5-20.61 873.25-22.02 872.67-22.68 872.08-23.34 871.23-23.51 870.37-23.68 869.2-23.68L869.2-23.68Q868.13-23.68 867.18-23.41 866.22-23.14 865.42-22.78 864.61-22.41 864-21.97 863.39-21.53 863.1-21.29L863.1-21.29 860.9-24.66Q861.39-25.2 862.37-25.76 863.34-26.32 864.61-26.76 865.88-27.2 867.37-27.47 868.86-27.73 870.47-27.73L870.47-27.73Q871.94-27.73 873.33-27.44 874.72-27.15 875.87-26.46 877.01-25.78 877.87-24.63 878.72-23.49 879.07-21.78L879.07-21.78Q879.41-20.07 879.53-18.33 879.65-16.6 879.65-14.89L879.65-14.89ZM873.79-6.59L873.79-13.33 870.67-13.33Q869.69-13.33 868.62-13.13 867.54-12.94 866.61-12.4 865.69-11.87 865.08-10.86 864.47-9.86 864.47-8.3L864.47-8.3Q864.47-5.86 865.56-4.79 866.66-3.71 868.76-3.71L868.76-3.71Q870.23-3.71 871.57-4.49 872.91-5.27 873.79-6.59L873.79-6.59ZM894.83-37.94L894.83-8.4Q894.83-6.74 895.27-5.79 895.71-4.83 896.49-4.37 897.28-3.91 898.28-3.76 899.28-3.61 900.45-3.61L900.45-3.61 900.45 0Q899.81 0.1 899.13 0.15L899.13 0.15Q898.59 0.2 897.86 0.22 897.13 0.24 896.4 0.24L896.4 0.24Q895.66 0.24 894.93 0.2 894.2 0.15 893.61 0.05L893.61 0.05Q891.95-0.29 891.03-1.42 890.1-2.54 889.61-3.93 889.12-5.32 889-6.64 888.88-7.96 888.88-8.69L888.88-8.69 888.88-9.28 888.88-37.94 894.83-37.94ZM912.61-27.54L912.61 0 906.65 0 906.65-27.54 912.61-27.54ZM913.14-36.33L913.14-36.33Q913.14-34.86 912.12-33.86 911.09-32.86 909.63-32.86L909.63-32.86Q908.16-32.86 907.16-33.89 906.16-34.91 906.16-36.33L906.16-36.33Q906.16-37.79 907.19-38.82 908.21-39.84 909.63-39.84L909.63-39.84Q911.09-39.84 912.12-38.82 913.14-37.79 913.14-36.33ZM928.76-23.54L928.76-8.35Q928.76-6.69 929.2-5.76 929.64-4.83 930.45-4.35 931.26-3.86 932.26-3.74 933.26-3.61 934.38-3.61L934.38-3.61 934.38 0Q933.75 0.1 933.11 0.15L933.11 0.15Q932.57 0.2 931.82 0.22 931.06 0.24 930.33 0.24L930.33 0.24Q929.59 0.24 928.84 0.2 928.08 0.15 927.54 0.05L927.54 0.05Q925.88-0.24 924.96-1.39 924.03-2.54 923.56-3.93 923.1-5.32 922.98-6.64 922.86-7.96 922.86-8.69L922.86-8.69 922.86-23.54 919.24-23.54 919.24-27.54 922.86-27.54 922.86-35.35 928.76-35.35 928.76-27.54 933.16-27.54 933.16-23.54 928.76-23.54ZM961.92-27.54L967.87-27.54Q965.19-20.36 963.09-14.82 960.99-9.28 959.43-5.1 957.86-0.93 956.67 1.95 955.47 4.83 954.47 6.76 953.47 8.69 952.59 9.79 951.71 10.89 950.78 11.47 949.86 12.06 948.76 12.18 947.66 12.3 946.24 12.3L946.24 12.3Q945.8 12.3 945.22 12.18 944.63 12.06 944.07 11.89 943.51 11.72 943.07 11.55 942.63 11.38 942.48 11.33L942.48 11.33Q942.68 10.45 942.87 9.67L942.87 9.67Q943.02 8.98 943.19 8.37 943.36 7.76 943.46 7.52L943.46 7.52Q943.85 7.52 944.66 7.76 945.46 8.01 945.85 8.01L945.85 8.01Q946.63 8.01 947.24 7.93 947.85 7.86 948.34 7.5 948.83 7.13 949.27 6.42 949.71 5.71 950.25 4.39L950.25 4.39 952.1 0 940.82-27.54 946.73-27.54 954.79-6.35 961.92-27.54Z" opacity="1" transform="matrix(1,0,0,1,0,0)" fill="#ffffff" class="slogan-text-1" data-fill-palette-color="secondary" id="text-1"></path></svg></g></svg></g></svg></g></svg></g><g><svg viewBox="0 0 245.65351679999995 288.5098629345933" height="288.5098629345933" width="245.65351679999995"><g><svg xmlns="http://www.w3.org/2000/svg" xmlns:xlink="http://www.w3.org/1999/xlink" version="1.1" x="0" y="0" viewBox="9.787 2.771 80.42599999999999 94.457" enable-background="new 0 0 100 100" xml:space="preserve" height="288.5098629345933" width="245.65351679999995" class="icon-icon-0" data-fill-palette-color="accent" id="icon-0"><path d="M71.896 89.605C82.918 81.183 90.213 66.596 90.213 50 90.213 33.408 82.922 18.825 71.905 10.401L75.65 2.812H51.38C50.922 2.794 50.463 2.771 50 2.771S49.079 2.794 48.619 2.812H24.35L28.095 10.401C17.078 18.825 9.787 33.408 9.787 50 9.787 66.597 17.082 81.183 28.104 89.605L24.35 97.212H49.474C49.65 97.215 49.824 97.228 50 97.228S50.35 97.215 50.526 97.212H75.65zM85.838 50C85.838 64.821 79.513 77.907 69.922 85.605L53.429 52.188H74.221V47.813H53.441L69.93 14.403C79.517 22.102 85.838 35.184 85.838 50M50 7.298A5.905 5.905 0 1 1 49.997 19.109 5.905 5.905 0 0 1 50 7.298M55.904 86.822A5.906 5.906 0 1 1 50 80.916 5.906 5.906 0 0 1 55.904 86.822M14.161 50C14.161 35.184 20.483 22.102 30.07 14.402L46.558 47.812H25.778V52.187H46.571L30.079 85.604C20.487 77.906 14.161 64.82 14.161 50" fill="#ffffff" data-fill-palette-color="accent"></path></svg></g></svg></g></svg></g><defs></defs></svg><rect width="395.52" height="169.21793014606084" fill="none" stroke="none" visibility="hidden"></rect></g></svg></g></svg>